PathFileType	4	(X/Y/Z)	D:\Share\Shared_Data\Ergonomics\Sit To Stand Pertubation\S3\Perturbed.trc
DataRate	CameraRate	NumFrames	NumMarkers	Units	OrigDataRate	OrigDataStartFrame	OrigNumFrames	
100	100	18	18	m	100	9584	231
Frame#	Time	R_ASIS			R_Pelvis			V_Sacral			L_Pelvis			L_ASIS			Clavical			R_Acromium			L_Acromium			Sternum			Torso			R_Thigh_Med			R_Thigh_Lat			R_Thigh			R_Shank_Med			R_Shank_Lat			R_Shank			R_Heel			R_Toe			
		X1	Y1	Z1	X2	Y2	Z2	X3	Y3	Z3	X4	Y4	Z4	X5	Y5	Z5	X6	Y6	Z6	X7	Y7	Z7	X8	Y8	Z8	X9	Y9	Z9	X10	Y10	Z10	X11	Y11	Z11	X12	Y12	Z12	X13	Y13	Z13	X14	Y14	Z14	X15	Y15	Z15	X16	Y16	Z16	X17	Y17	Z17	X18	Y18	Z18	

9584	95.83	0.40282907	0.9465285	0.15486372	0.29337308	0.95107654	0.20675423	0.18614426	0.9727951	0.014669866	0.30359714	0.95688562	-0.19059346	0.40762985	0.93592938	-0.1269111	0.38466785	1.3792369	0.011665688	0.33389471	1.4304092	0.17929411	0.34232227	1.4446455	-0.14025653	0.41252878	1.3040668	0.013810517	0.39266437	1.3697084	-0.053743603	0.34211856	0.46379178	0.048140205	0.33047867	0.45655322	0.15671695	0.4188299	0.65817389	0.11561244	0.30579837	0.1048059	0.094823952	0.29112903	0.095100632	0.17617757	0.28021289	0.28324527	0.18218874	0.23119044	0.048282375	0.13130304	0.44976474	0.054886745	0.11498753
9585	95.84	0.40533109	0.94632666	0.15430948	0.29601074	0.95096198	0.20687953	0.18834036	0.97215527	0.01472697	0.30539893	0.95634375	-0.19083713	0.40978372	0.93556702	-0.12745786	0.38382101	1.3784556	0.011581351	0.3308107	1.4284897	0.17992664	0.33996744	1.4430938	-0.14092702	0.41224521	1.3031091	0.013726652	0.39196085	1.3686036	-0.053871933	0.34305344	0.46357266	0.047941128	0.33222955	0.45628363	0.15667242	0.42064304	0.65797699	0.11493613	0.30505066	0.10472101	0.094637001	0.29116565	0.095057762	0.17614128	0.28166324	0.2831326	0.18231148	0.23124141	0.048305096	0.13131966	0.44987433	0.054747883	0.11501684
9586	95.85	0.4074801	0.94615564	0.15372948	0.29832654	0.95077386	0.20689175	0.19028252	0.97162976	0.014845971	0.306922	0.9560025	-0.19090372	0.41172855	0.93544958	-0.12802531	0.38317285	1.3777312	0.011525095	0.32792474	1.4267006	0.18055838	0.337659	1.4415074	-0.14164491	0.41208731	1.3022026	0.0136595	0.39144437	1.3675177	-0.054033489	0.34447925	0.46341769	0.047473362	0.33434738	0.45599905	0.15639064	0.42256268	0.65798584	0.11384773	0.3044798	0.10461028	0.094314911	0.29121561	0.095012222	0.17594463	0.28327274	0.28305972	0.18217862	0.2313046	0.048351543	0.13129596	0.45001581	0.054606968	0.11501005
9587	95.86	0.40932452	0.94605084	0.153179	0.30030975	0.95049677	0.20675356	0.19199304	0.97115637	0.014985143	0.30823624	0.95580933	-0.19081436	0.413505	0.9355564	-0.12857684	0.38270502	1.3770787	0.011490392	0.3253201	1.425131	0.18112761	0.33546924	1.4399608	-0.14236226	0.41203131	1.3013929	0.013610795	0.39108282	1.3664974	-0.054218185	0.3461983	0.46331851	0.046816475	0.3365744	0.45572458	0.15593425	0.42450943	0.65815039	0.11246315	0.3041304	0.10448525	0.093889816	0.29125824	0.094951019	0.17558902	0.28479791	0.28303726	0.18182924	0.23136917	0.048411209	0.13123785	0.45016873	0.054478897	0.1149724
9588	95.87	0.4109183	0.94603534	0.15270796	0.30196454	0.95013062	0.20645471	0.19350191	0.97067145	0.015090918	0.30942026	0.95570074	-0.19061638	0.41515167	0.93583813	-0.12907658	0.38238281	1.3764943	0.011460982	0.32307623	1.4238441	0.18157443	0.33348874	1.4385172	-0.14303	0.41204407	1.3007024	0.013578349	0.3908299	1.3655723	-0.054410706	0.34801782	0.46326266	0.046072067	0.33869006	0.45548419	0.15539076	0.42640378	0.65840643	0.11094523	0.30398929	0.10436179	0.09340239	0.29128171	0.094864288	0.17510385	0.28606964	0.28306628	0.18134018	0.23142529	0.048473469	0.13115761	0.45031195	0.054374847	0.114915
9589	95.88	0.41230942	0.94611884	0.15235349	0.30330997	0.94969446	0.20601657	0.19484012	0.97012622	0.015108335	0.31055164	0.9556203	-0.19037434	0.41670026	0.93623206	-0.12949565	0.38215961	1.375969	0.011416702	0.32125385	1.4228745	0.18185698	0.3318111	1.4372257	-0.14360811	0.41209045	1.3001401	0.01355667	0.39063126	1.3647633	-0.054594566	0.34978427	0.46323428	0.045346531	0.34054041	0.45529675	0.15485242	0.4281814	0.65868866	0.1094782	0.30400183	0.10425616	0.09290062	0.29128452	0.09475058	0.17454509	0.28701489	0.28313901	0.18080508	0.23146681	0.048529469	0.13107031	0.45042819	0.054301155	0.11485152
9590	95.89	0.41353445	0.94629767	0.15213551	0.30437753	0.94922424	0.20548734	0.19603511	0.96949542	0.01499255	0.31169788	0.95553119	-0.19015671	0.41817322	0.93667505	-0.12981596	0.38199097	1.3755012	0.011343847	0.31988199	1.4222262	0.18196307	0.33051364	1.4361189	-0.14407323	0.4121423	1.2997124	0.013539915	0.39043619	1.3640897	-0.054756447	0.35140634	0.46321591	0.044731602	0.3420473	0.45517093	0.15439439	0.42980362	0.65894012	0.10824068	0.30409042	0.10418056	0.092431328	0.29127109	0.09461673	0.17398172	0.28764691	0.28324271	0.18031035	0.23149167	0.048573166	0.13098999	0.45050677	0.054259499	0.11479511
9591	95.9	0.41461826	0.94655646	0.15205589	0.30520822	0.94876617	0.20492979	0.19711058	0.96878021	0.014717661	0.31290924	0.95542004	-0.19002124	0.41958356	0.93711389	-0.1300312	0.38184906	1.3750985	0.011242047	0.31895383	1.4218751	0.18191096	0.32963831	1.4352123	-0.14442073	0.41218329	1.2994274	0.013525585	0.39021112	1.3635721	-0.05488839	0.35285837	0.46319189	0.04429113	0.34320197	0.45510339	0.15406261	0.43125949	0.65912042	0.10738004	0.30417526	0.10414137	0.092030441	0.29124643	0.094475983	0.17347789	0.28803561	0.28336371	0.17991718	0.2315011	0.04860215	0.13092709	0.45054446	0.054247581	0.11475587
9592	95.91	0.41557587	0.94687018	0.1521004	0.30584827	0.94836597	0.20440482	0.19808856	0.9680033	0.014280603	0.31421472	0.95529437	-0.19000308	0.42093546	0.93750946	-0.13014563	0.38172528	1.3747728	0.011122339	0.3184321	1.4217756	0.18174057	0.32918146	1.4345055	-0.14466071	0.41220895	1.2992936	0.013516584	0.38994562	1.3632263	-0.054987053	0.35416483	0.46314984	0.044057446	0.34404916	0.4550827	0.15387361	0.43256168	0.65920917	0.10699132	0.30420135	0.10413883	0.091720024	0.29121582	0.094345734	0.17308081	0.28827173	0.28348987	0.17965414	0.23149838	0.048617611	0.13088727	0.45054489	0.054260307	0.11473959
9593	95.92	0.41641696	0.94720764	0.15224356	0.30634427	0.94805768	0.20395555	0.19899268	0.96720105	0.013700405	0.31561853	0.95517474	-0.19011034	0.42222653	0.93783923	-0.13017242	0.38162238	1.374536	0.011000046	0.31826093	1.4218668	0.18150076	0.32909729	1.433984	-0.14481131	0.41222504	1.2993142	0.013520158	0.38964969	1.3630575	-0.055052578	0.35537537	0.46307916	0.044032085	0.3446655	0.45509427	0.15381871	0.4337374	0.65920599	0.10710475	0.30414935	0.10416785	0.091505615	0.29118478	0.094241844	0.1728127	0.28843698	0.28361133	0.17951805	0.2314879	0.048623341	0.13087065	0.45051627	0.054290882	0.11474751
9594	95.93	0.41715027	0.94753528	0.15245461	0.3067388	0.94785449	0.20359834	0.19984904	0.96641516	0.013013481	0.31709988	0.95508447	-0.19032764	0.42345126	0.9380943	-0.13013191	0.38154614	1.3743942	0.01088756	0.31837695	1.4220817	0.18123679	0.32931152	1.4336238	-0.14489374	0.4122438	1.299483	0.013544272	0.38934833	1.3630549	-0.055088367	0.35654428	0.46297076	0.044189392	0.3451355	0.45512296	0.15386931	0.43481741	0.65912665	0.10768464	0.30402698	0.10421976	0.091375336	0.29115656	0.09417382	0.17266805	0.28858655	0.2837215	0.17947992	0.2314747	0.048624512	0.13087268	0.45046976	0.054331615	0.1147771
9595	95.94	0.41778647	0.94782239	0.15270284	0.3070658	0.94774689	0.20332195	0.20068196	0.96568903	0.012266057	0.31861823	0.9550412	-0.19062219	0.42460504	0.93827698	-0.13004962	0.38149826	1.3743458	0.010789659	0.31871683	1.4223551	0.18098235	0.32973904	1.4333928	-0.14493048	0.4122803	1.2997837	0.013593521	0.38907791	1.363193	-0.05510091	0.35771976	0.46281979	0.044484264	0.3455332	0.45515469	0.15398457	0.43582513	0.65899756	0.10863957	0.30385892	0.10428441	0.091306564	0.29113077	0.09414505	0.17262086	0.2887457	0.28381799	0.17949548	0.23146347	0.048626747	0.1308862	0.45041745	0.054374802	0.11482327
9596	95.95	0.4183392	0.94804517	0.15296133	0.30734756	0.94770551	0.20309482	0.2015061	0.96506525	0.011505507	0.32012332	0.95505115	-0.19095053	0.4256871	0.93839685	-0.12995374	0.3814758	1.3743813	0.010704028	0.31922229	1.4226301	0.18075838	0.33030109	1.433256	-0.14494362	0.41234891	1.3001898	0.013666739	0.38887885	1.3634332	-0.055098602	0.3589353	0.46262939	0.044861015	0.34591019	0.4551785	0.15412074	0.43677045	0.65884851	0.10983948	0.30367862	0.10435213	0.091275742	0.29110495	0.094153229	0.17263466	0.28891583	0.28390228	0.179517	0.23145782	0.048634895	0.13090346	0.45037064	0.054413895	0.11487945
9597	95.96	0.41882379	0.94819043	0.1532086	0.30759485	0.94769165	0.20287686	0.20232217	0.96458221	0.010772376	0.32156543	0.95510938	-0.19126613	0.4267027	0.9384679	-0.12987181	0.38147794	1.3744854	0.010625866	0.31984241	1.4228633	0.18057585	0.33093567	1.4331785	-0.14495248	0.41246317	1.3006686	0.013757134	0.3887836	1.3637341	-0.055090664	0.36019775	0.46241241	0.045259953	0.34629156	0.45518839	0.15423886	0.43764899	0.65870624	0.11113492	0.30352277	0.10441397	0.091266205	0.29107721	0.094188286	0.17267212	0.28908438	0.28397812	0.17950485	0.23145981	0.048651825	0.13091783	0.45033792	0.054444305	0.11493874
9598	95.97	0.41925635	0.94825635	0.15342854	0.30780981	0.94766852	0.20263106	0.20312012	0.96426691	0.010095136	0.32290457	0.95520129	-0.19152841	0.42766263	0.93850653	-0.12982678	0.38150839	1.3746371	0.010550953	0.32053183	1.423026	0.18043877	0.33159863	1.4331298	-0.14497227	0.41263672	1.3011821	0.013853949	0.38880756	1.364057	-0.055086784	0.36147629	0.46218881	0.045622818	0.34667764	0.45518509	0.15430908	0.43844479	0.65858936	0.11237664	0.30342776	0.10446088	0.091272697	0.29105048	0.094232727	0.17270622	0.28923404	0.2840495	0.17943544	0.23146962	0.048678265	0.13092494	0.45032394	0.054463783	0.11499464
9599	95.98	0.41965298	0.94825165	0.1536091	0.30799188	0.94760986	0.20233136	0.20388718	0.96412836	0.0094888477	0.32411664	0.95530701	-0.19170888	0.42858099	0.93852808	-0.12983398	0.38157343	1.374814	0.010476023	0.32124893	1.4231029	0.18034599	0.33226068	1.4330878	-0.14501306	0.41288312	1.3016904	0.013944464	0.38894904	1.3643704	-0.055096138	0.36270404	0.46198163	0.045899773	0.34705066	0.45517474	0.15431195	0.43913474	0.65850641	0.11343454	0.30342017	0.10448518	0.091296951	0.29103329	0.094266594	0.17272606	0.28935052	0.28411993	0.17930464	0.23148564	0.048713322	0.13092314	0.45032913	0.054472607	0.1150418
9600	95.99	0.42002802	0.94819183	0.15374098	0.30814246	0.94750525	0.201966	0.20461429	0.96415631	0.0089564075	0.32519586	0.95540625	-0.19179504	0.42947208	0.9385448	-0.12989934	0.38168292	1.3749927	0.010399481	0.32195435	1.4230909	0.18029227	0.33290485	1.4330383	-0.14507857	0.41321045	1.3021519	0.014015521	0.38919598	1.3646477	-0.055124744	0.36379178	0.46181113	0.046057774	0.34738351	0.45516547	0.15423964	0.43969421	0.65845508	0.11421375	0.30349869	0.10448608	0.091337151	0.29103259	0.094278549	0.17273112	0.28942648	0.28419131	0.17912589	0.23150484	0.048754971	0.1309136	0.45035016	0.054473068	0.11507676
9601	96	0.42039255	0.94809509	0.1538172	0.30826807	0.94736005	0.20153687	0.20529776	0.96432477	0.0084905834	0.32615311	0.95548236	-0.19179268	0.43034717	0.93856268	-0.1300193	0.38185019	1.3751516	0.010321554	0.32261139	1.4229963	0.18026955	0.33352295	1.4329756	-0.14516652	0.41361642	1.3025262	0.014054249	0.38953305	1.3648674	-0.055173161	0.36464703	0.46168936	0.046085953	0.34764697	0.45516287	0.1540948	0.44010364	0.65842371	0.11466478	0.30362848	0.10447195	0.091384315	0.29104642	0.094273262	0.1727244	0.28946259	0.28426297	0.17892433	0.23152373	0.048800049	0.13089929	0.45038144	0.054468216	0.1150983
